<svg xmlns="http://www.w3.org/2000/svg" style="display:none">
    <!-- Стрелка вниз -->
    <symbol id="down-chevron" viewBox="0 0 24 24" fill="currentColor">
        <path d="M7 10l5 5 5-5H7z"/>
    </symbol>

    <!-- Банк -->
    <symbol id="bank" viewBox="0 0 24 24" fill="currentColor">
        <path d="M12 3L2 9h20L12 3zm0 3l6 3H6l6-3zM4 11v9h2v-7h12v7h2v-9H4zm4 4v5h2v-5H8zm4 0v5h2v-5h-2zm4 0v5h2v-5h-2z"/>
    </symbol>

    <!-- График (столбики) -->
    <symbol id="chart" viewBox="0 0 24 24" fill="currentColor">
        <path d="M5 19h2V9H5v10zm4 0h2V5H9v14zm4 0h2v-6h-2v6zm4 0h2V3h-2v16z"/>
    </symbol>

    <!-- Деньги (купюра) -->
    <symbol id="money" viewBox="0 0 24 24" fill="currentColor">
        <path d="M2 6h20v12H2V6zm2 2v8h16V8H4zm6 2h4v4h-4v-4z"/>
    </symbol>

    <!-- Логотип F -->
    <symbol id="logo-f" viewBox="0 0 24 24" fill="currentColor">
        <path d="M7 3h12v3H10v3h7v3h-7v9H7V3z"/>
    </symbol>

    <!-- Плюс -->
    <symbol id="plus" viewBox="0 0 24 24" fill="currentColor">
        <path d="M19 11h-6V5h-2v6H5v2h6v6h2v-6h6v-2z"/>
    </symbol>

    <!-- Настройки (шестерёнка) -->
    <symbol id="settings" viewBox="0 0 24 24" fill="currentColor">
        <path d="M19.14 12.94c.04-.3.06-.61.06-.94 0-.32-.02-.64-.07-.94l2.03-1.58c.18-.14.23-.41.12-.61l-1.92-3.32c-.12-.22-.37-.29-.59-.22l-2.39.96c-.5-.38-1.03-.7-1.62-.94l-.36-2.54c-.04-.24-.24-.41-.48-.41h-3.84c-.24 0-.43.17-.47.41l-.36 2.54c-.59.24-1.13.57-1.62.94l-2.39-.96c-.22-.08-.47 0-.59.22L2.74 8.87c-.12.21-.08.47.12.61l2.03 1.58c-.05.3-.09.63-.09.94s.02.64.07.94l-2.03 1.58c-.18.14-.23.41-.12.61l1.92 3.32c.12.22.37.29.59.22l2.39-.96c.5.38 1.03.7 1.62.94l.36 2.54c.05.24.24.41.48.41h3.84c.24 0 .44-.17.47-.41l.36-2.54c.59-.24 1.13-.56 1.62-.94l2.39.96c.22.08.47 0 .59-.22l1.92-3.32c.12-.22.07-.47-.12-.61l-2.01-1.58zM12 15.6c-1.98 0-3.6-1.62-3.6-3.6s1.62-3.6 3.6-3.6 3.6 1.62 3.6 3.6-1.62 3.6-3.6 3.6z"/>
    </symbol>

    <!-- Дом -->
    <symbol id="home" viewBox="0 0 24 24" fill="currentColor">
        <path d="M10 20v-6h4v6h5v-8h3L12 3 2 12h3v8h5z"/>
    </symbol>

    <!-- Кошелёк -->
    <symbol id="wallet" viewBox="0 0 24 24" fill="currentColor">
        <path d="M21 18v1c0 1.1-.9 2-2 2H5c-1.11 0-2-.9-2-2V5c0-1.1.89-2 2-2h14c1.1 0 2 .9 2 2v1h-9c-1.11 0-2 .9-2 2v8c0 1.1.89 2 2 2h9zm-9-2h10V8H12v8zm4-2.5c-.83 0-1.5-.67-1.5-1.5s.67-1.5 1.5-1.5 1.5.67 1.5 1.5-.67 1.5-1.5 1.5z"/>
    </symbol>
</svg>